<svg xmlns="http://www.w3.org/2000/svg" viewBox="0 0 64 64" width="64" height="64">
  <defs>
    <linearGradient id="g" x1="0" y1="0" x2="0" y2="1">
      <stop offset="0%" stop-color="#3b82f6"/>
      <stop offset="100%" stop-color="#1d4ed8"/>
    </linearGradient>
  </defs>
  <rect width="64" height="64" rx="14" fill="url(#g)"/>
  <path d="M22 38c-3.3 0-6-2.5-6-5.6 0-2.7 2-4.9 4.7-5.4.4-3.7 3.6-6.6 7.5-6.6 3 0 5.6 1.7 6.8 4.2.7-.2 1.4-.3 2.1-.3 3.7 0 6.7 2.9 6.7 6.5 0 .5-.1 1-.2 1.5 2.1.4 3.7 2.2 3.7 4.4 0 2.5-2.1 4.5-4.7 4.5H22z" fill="#fff" opacity="0.96"/>
  <text x="50%" y="83%" text-anchor="middle" font-family="Helvetica, Arial, sans-serif" font-weight="700" font-size="11" fill="#fff" letter-spacing="1">FLOWTICA</text>
</svg>
